<svg enable-background="new 0 0 1200 600" viewBox="0 0 1200 600" xmlns="http://www.w3.org/2000/svg" xmlns:xlink="http://www.w3.org/1999/xlink"><clipPath id="a"><path d="m0 0h1200v600h-1200z"/></clipPath><g clip-path="url(#a)"><path d="m506.7 133.3-14.4-4.3 4.4-14.4-10.8-3.3-4.3 14.4-14.4-4.3-3.3 10.7 14.4 4.4-4.3 14.4 10.7 3.2 4.4-14.4 14.4 4.4z" fill="none" opacity=".2" stroke="#008080" stroke-miterlimit="10" stroke-width="4"/><path d="m294.6 568.9-6-13.8 13.9-6-4.5-10.3-13.8 5.9-5.9-13.8-10.3 4.4 5.9 13.9-13.9 5.9 4.5 10.3 13.8-5.9 5.9 13.8z" fill="none" opacity=".1" stroke="#008080" stroke-miterlimit="10" stroke-width="4"/><path d="m1124.4 206.3-.3-15 15.1-.3-.2-11.3-15.1.3-.3-15-11.2.2.3 15.1-15.1.3.2 11.2 15.1-.3.3 15z" fill="none" opacity=".15" stroke="#008080" stroke-miterlimit="10" stroke-width="4"/><path d="m1011.1 535.2-18.6-5.6 5.6-18.6-13.9-4.2-5.6 18.6-18.6-5.6-4.2 13.9 18.6 5.6-5.6 18.6 13.8 4.2 5.7-18.6 18.6 5.6z" fill="none" opacity=".07" stroke="#008080" stroke-miterlimit="10" stroke-width="4"/><path d="m221.4 304.1-14.4-4.4 4.3-14.4-10.7-3.2-4.4 14.4-14.4-4.4-3.3 10.8 14.5 4.4-4.4 14.4 10.8 3.2 4.3-14.4 14.4 4.4z" fill="none" opacity=".2" stroke="#008080" stroke-miterlimit="10" stroke-width="4"/><path d="m1115.5 605.3-5.9-13.8 13.8-6-4.4-10.3-13.8 5.9-5.9-13.8-10.4 4.4 6 13.8-13.9 6 4.4 10.3 13.9-5.9 5.9 13.8z" fill="none" opacity=".1" stroke="#008080" stroke-miterlimit="10" stroke-width="4"/><path d="m726.1 471-.3-15.1 15-.3-.2-11.2-15.1.3-.3-15.1-11.2.2.3 15.1-15 .3.2 11.2 15-.3.3 15.1z" fill="none" opacity=".15" stroke="#008080" stroke-miterlimit="10" stroke-width="4"/><path d="m1044.3 288.2-18.6-5.7 5.6-18.6-13.9-4.2-5.6 18.6-18.6-5.6-4.2 13.9 18.6 5.6-5.6 18.6 13.9 4.2 5.6-18.6 18.6 5.7z" fill="none" opacity=".07" stroke="#008080" stroke-miterlimit="10" stroke-width="4"/><circle cx="350.6" cy="138.8" fill="none" opacity=".15" r="19.3" stroke="#008080" stroke-miterlimit="10" stroke-width="4"/><circle cx="964.4" cy="138.8" fill="none" opacity=".07" r="19.3" stroke="#008080" stroke-miterlimit="10" stroke-width="4"/><path d="m768.5 156.5h15.9v15.9h-15.9z" fill="none" opacity=".2" stroke="#008080" stroke-miterlimit="10" stroke-width="4" transform="matrix(.7071 .7071 -.7071 .7071 343.7108 -500.8486)"/><path d="m375.1 447.6h25v25h-25z" fill="none" opacity=".2" stroke="#008080" stroke-miterlimit="10" stroke-width="4" transform="matrix(.7071 .7071 -.7071 .7071 438.8774 -139.2991)"/><path d="m82.7 261.2h25v25h-25z" fill="none" opacity=".1" stroke="#008080" stroke-miterlimit="10" stroke-width="4" transform="matrix(.7071 .7071 -.7071 .7071 221.4277 12.8935)"/><path d="m639.4 172-9.4-34.9-25.6 25.5z" fill="none" opacity=".07" stroke="#008080" stroke-miterlimit="10" stroke-width="4"/><path d="m240.4 27-36.1 1.8 19.6 30.4z" fill="none" opacity=".2" stroke="#008080" stroke-miterlimit="10" stroke-width="4"/><path d="m602.4 539.1 30.2-20-32.4-16.2z" fill="none" opacity=".1" stroke="#008080" stroke-miterlimit="10" stroke-width="4"/><path d="m1082.8 89.2 30.2-20-32.3-16.2z" fill="none" opacity=".1" stroke="#008080" stroke-miterlimit="10" stroke-width="4"/><path d="m844.3 427.9 26.4 36.4" fill="none" opacity=".15" stroke="#008080" stroke-miterlimit="10" stroke-width="4"/><path d="m830 438.3 26.4 36.4" fill="none" opacity=".15" stroke="#008080" stroke-miterlimit="10" stroke-width="4"/><path d="m91.8 521.5-33.4 30.2" fill="none" opacity=".15" stroke="#008080" stroke-miterlimit="10" stroke-width="4"/><path d="m80 508.4-33.4 30.1" fill="none" opacity=".15" stroke="#008080" stroke-miterlimit="10" stroke-width="4"/><path d="m169 158 41.3-17.8" fill="none" opacity=".07" stroke="#008080" stroke-miterlimit="10" stroke-width="4"/><path d="m176 174.3 41.3-17.9" fill="none" opacity=".07" stroke="#008080" stroke-miterlimit="10" stroke-width="4"/><path d="m933.9 398.3 17 8 17.1-8 17 8 17-8 17.1 8" fill="none" opacity=".2" stroke="#008080" stroke-miterlimit="10" stroke-width="4"/><path d="m1114.9 442.1 22.1 8 22-8 22.1 8 22.1-8 22 8" fill="none" opacity=".07" stroke="#008080" stroke-miterlimit="10" stroke-width="4"/><path d="m1114.9 418.5 22.1 8 22-8 22.1 8 22.1-8 22 8" fill="none" opacity=".1" stroke="#008080" stroke-miterlimit="10" stroke-width="4"/><path d="m-33 182.1 22.1 8 22-8 22.1 8 22-8 22.1 8" fill="none" opacity=".07" stroke="#008080" stroke-miterlimit="10" stroke-width="4"/><path d="m-33 158.5 22.1 8 22-8 22.1 8 22-8 22.1 8" fill="none" opacity=".1" stroke="#008080" stroke-miterlimit="10" stroke-width="4"/><path d="m143.8 539 18.8-1.6 10.7-15.4 18.8-1.6 10.7-15.5 18.8-1.6" fill="none" opacity=".07" stroke="#008080" stroke-miterlimit="10" stroke-width="4"/><path d="m688.6 97.1 18.7-1.5 10.7-15.5 18.8-1.6 10.7-15.4 18.8-1.6" fill="none" opacity=".15" stroke="#008080" stroke-miterlimit="10" stroke-width="4"/><path d="m196.9 433 18.7-1.6 10.8-15.5 18.7-1.6 10.8-15.4 18.7-1.6" fill="none" opacity=".15" stroke="#008080" stroke-miterlimit="10" stroke-width="4"/><g fill="#008080"><path d="m335.4 23.7c0 1.3-1.1 2.4-2.4 2.4s-2.4-1.1-2.4-2.4 1.1-2.4 2.4-2.4 2.4 1.1 2.4 2.4z" opacity=".2"/><path d="m351.2 23.7c0 1.3-1.1 2.4-2.4 2.4s-2.4-1.1-2.4-2.4 1.1-2.4 2.4-2.4 2.4 1.1 2.4 2.4z" opacity=".2"/><path d="m366.9 23.7c0 1.3-1.1 2.4-2.4 2.4s-2.4-1.1-2.4-2.4 1.1-2.4 2.4-2.4c1.4 0 2.4 1.1 2.4 2.4z" opacity=".2"/><path d="m382.7 23.7c0 1.3-1.1 2.4-2.4 2.4s-2.4-1.1-2.4-2.4 1.1-2.4 2.4-2.4 2.4 1.1 2.4 2.4z" opacity=".2"/><path d="m398.5 23.7c0 1.3-1.1 2.4-2.4 2.4s-2.4-1.1-2.4-2.4 1.1-2.4 2.4-2.4 2.4 1.1 2.4 2.4z" opacity=".2"/><path d="m414.2 23.7c0 1.3-1.1 2.4-2.4 2.4s-2.4-1.1-2.4-2.4 1.1-2.4 2.4-2.4c1.4 0 2.4 1.1 2.4 2.4z" opacity=".2"/><path d="m430 23.7c0 1.3-1.1 2.4-2.4 2.4s-2.4-1.1-2.4-2.4 1.1-2.4 2.4-2.4 2.4 1.1 2.4 2.4z" opacity=".2"/><path d="m445.8 23.7c0 1.3-1.1 2.4-2.4 2.4s-2.4-1.1-2.4-2.4 1.1-2.4 2.4-2.4 2.4 1.1 2.4 2.4z" opacity=".2"/><path d="m461.5 23.7c0 1.3-1.1 2.4-2.4 2.4s-2.4-1.1-2.4-2.4 1.1-2.4 2.4-2.4c1.4 0 2.4 1.1 2.4 2.4z" opacity=".2"/><circle cx="341" cy="36.2" opacity=".2" r="2.4"/><circle cx="356.8" cy="36.2" opacity=".2" r="2.4"/><path d="m374.9 36.2c0 1.3-1.1 2.4-2.4 2.4s-2.4-1.1-2.4-2.4 1.1-2.4 2.4-2.4c1.4 0 2.4 1.1 2.4 2.4z" opacity=".2"/><path d="m390.7 36.2c0 1.3-1.1 2.4-2.4 2.4s-2.4-1.1-2.4-2.4 1.1-2.4 2.4-2.4 2.4 1.1 2.4 2.4z" opacity=".2"/><path d="m406.5 36.2c0 1.3-1.1 2.4-2.4 2.4s-2.4-1.1-2.4-2.4 1.1-2.4 2.4-2.4 2.4 1.1 2.4 2.4z" opacity=".2"/><circle cx="419.9" cy="36.2" opacity=".2" r="2.4"/><path d="m438 36.2c0 1.3-1.1 2.4-2.4 2.4s-2.4-1.1-2.4-2.4 1.1-2.4 2.4-2.4 2.4 1.1 2.4 2.4z" opacity=".2"/><path d="m453.8 36.2c0 1.3-1.1 2.4-2.4 2.4s-2.4-1.1-2.4-2.4 1.1-2.4 2.4-2.4 2.4 1.1 2.4 2.4z" opacity=".2"/><path d="m469.5 36.2c0 1.3-1.1 2.4-2.4 2.4s-2.4-1.1-2.4-2.4 1.1-2.4 2.4-2.4c1.4 0 2.4 1.1 2.4 2.4z" opacity=".2"/><path d="m-34.2 427c0 1.3-1.1 2.4-2.4 2.4s-2.4-1.1-2.4-2.4 1.1-2.4 2.4-2.4c1.4 0 2.4 1.1 2.4 2.4z" opacity=".2"/><path d="m-18.4 427c0 1.3-1.1 2.4-2.4 2.4s-2.4-1.1-2.4-2.4 1.1-2.4 2.4-2.4 2.4 1.1 2.4 2.4z" opacity=".2"/><path d="m-2.6 427c0 1.3-1.1 2.4-2.4 2.4s-2.4-1.1-2.4-2.4 1.1-2.4 2.4-2.4 2.4 1.1 2.4 2.4z" opacity=".2"/><path d="m13.1 427c0 1.3-1.1 2.4-2.4 2.4s-2.4-1.1-2.4-2.4 1.1-2.4 2.4-2.4c1.4 0 2.4 1.1 2.4 2.4z" opacity=".2"/><path d="m28.9 427c0 1.3-1.1 2.4-2.4 2.4s-2.4-1.1-2.4-2.4 1.1-2.4 2.4-2.4 2.4 1.1 2.4 2.4z" opacity=".2"/><path d="m44.7 427c0 1.3-1.1 2.4-2.4 2.4s-2.4-1.1-2.4-2.4 1.1-2.4 2.4-2.4 2.4 1.1 2.4 2.4z" opacity=".2"/><path d="m60.4 427c0 1.3-1.1 2.4-2.4 2.4s-2.4-1.1-2.4-2.4 1.1-2.4 2.4-2.4c1.4 0 2.4 1.1 2.4 2.4z" opacity=".2"/><path d="m76.2 427c0 1.3-1.1 2.4-2.4 2.4s-2.4-1.1-2.4-2.4 1.1-2.4 2.4-2.4 2.4 1.1 2.4 2.4z" opacity=".2"/><path d="m92 427c0 1.3-1.1 2.4-2.4 2.4s-2.4-1.1-2.4-2.4 1.1-2.4 2.4-2.4 2.4 1.1 2.4 2.4z" opacity=".2"/><path d="m-26.2 439.5c0 1.3-1.1 2.4-2.4 2.4s-2.4-1.1-2.4-2.4 1.1-2.4 2.4-2.4c1.4 0 2.4 1.1 2.4 2.4z" opacity=".2"/><path d="m-10.4 439.5c0 1.3-1.1 2.4-2.4 2.4s-2.4-1.1-2.4-2.4 1.1-2.4 2.4-2.4 2.4 1.1 2.4 2.4z" opacity=".2"/><path d="m5.4 439.5c0 1.3-1.1 2.4-2.4 2.4s-2.4-1.1-2.4-2.4 1.1-2.4 2.4-2.4 2.4 1.1 2.4 2.4z" opacity=".2"/><path d="m21.1 439.5c0 1.3-1.1 2.4-2.4 2.4s-2.4-1.1-2.4-2.4 1.1-2.4 2.4-2.4 2.4 1.1 2.4 2.4z" opacity=".2"/><path d="m36.9 439.5c0 1.3-1.1 2.4-2.4 2.4s-2.4-1.1-2.4-2.4 1.1-2.4 2.4-2.4 2.4 1.1 2.4 2.4z" opacity=".2"/><path d="m52.7 439.5c0 1.3-1.1 2.4-2.4 2.4s-2.4-1.1-2.4-2.4 1.1-2.4 2.4-2.4 2.4 1.1 2.4 2.4z" opacity=".2"/><path d="m68.4 439.5c0 1.3-1.1 2.4-2.4 2.4s-2.4-1.1-2.4-2.4 1.1-2.4 2.4-2.4c1.4 0 2.4 1.1 2.4 2.4z" opacity=".2"/><path d="m84.2 439.5c0 1.3-1.1 2.4-2.4 2.4s-2.4-1.1-2.4-2.4 1.1-2.4 2.4-2.4 2.4 1.1 2.4 2.4z" opacity=".2"/><path d="m100 439.5c0 1.3-1.1 2.4-2.4 2.4s-2.4-1.1-2.4-2.4 1.1-2.4 2.4-2.4 2.4 1.1 2.4 2.4z" opacity=".2"/><path d="m1097 500.9c0 1.3-1.1 2.4-2.4 2.4s-2.4-1.1-2.4-2.4 1.1-2.4 2.4-2.4c1.4 0 2.4 1.1 2.4 2.4z" opacity=".2"/><path d="m1112.8 500.9c0 1.3-1.1 2.4-2.4 2.4s-2.4-1.1-2.4-2.4 1.1-2.4 2.4-2.4 2.4 1.1 2.4 2.4z" opacity=".2"/><path d="m1128.6 500.9c0 1.3-1.1 2.4-2.4 2.4s-2.4-1.1-2.4-2.4 1.1-2.4 2.4-2.4 2.4 1.1 2.4 2.4z" opacity=".2"/><path d="m1144.3 500.9c0 1.3-1.1 2.4-2.4 2.4s-2.4-1.1-2.4-2.4 1.1-2.4 2.4-2.4 2.4 1.1 2.4 2.4z" opacity=".2"/><path d="m1160.1 500.9c0 1.3-1.1 2.4-2.4 2.4s-2.4-1.1-2.4-2.4 1.1-2.4 2.4-2.4 2.4 1.1 2.4 2.4z" opacity=".2"/><path d="m1175.9 500.9c0 1.3-1.1 2.4-2.4 2.4s-2.4-1.1-2.4-2.4 1.1-2.4 2.4-2.4 2.4 1.1 2.4 2.4z" opacity=".2"/><path d="m1191.6 500.9c0 1.3-1.1 2.4-2.4 2.4s-2.4-1.1-2.4-2.4 1.1-2.4 2.4-2.4c1.4 0 2.4 1.1 2.4 2.4z" opacity=".2"/><path d="m1207.4 500.9c0 1.3-1.1 2.4-2.4 2.4s-2.4-1.1-2.4-2.4 1.1-2.4 2.4-2.4 2.4 1.1 2.4 2.4z" opacity=".2"/><path d="m1223.2 500.9c0 1.3-1.1 2.4-2.4 2.4s-2.4-1.1-2.4-2.4 1.1-2.4 2.4-2.4 2.4 1.1 2.4 2.4z" opacity=".2"/><path d="m1105 513.4c0 1.3-1.1 2.4-2.4 2.4s-2.4-1.1-2.4-2.4 1.1-2.4 2.4-2.4 2.4 1.1 2.4 2.4z" opacity=".2"/><path d="m1120.8 513.4c0 1.3-1.1 2.4-2.4 2.4s-2.4-1.1-2.4-2.4 1.1-2.4 2.4-2.4 2.4 1.1 2.4 2.4z" opacity=".2"/><path d="m1136.6 513.4c0 1.3-1.1 2.4-2.4 2.4s-2.4-1.1-2.4-2.4 1.1-2.4 2.4-2.4 2.4 1.1 2.4 2.4z" opacity=".2"/><path d="m1152.3 513.4c0 1.3-1.1 2.4-2.4 2.4s-2.4-1.1-2.4-2.4 1.1-2.4 2.4-2.4c1.4 0 2.4 1.1 2.4 2.4z" opacity=".2"/><path d="m1168.1 513.4c0 1.3-1.1 2.4-2.4 2.4s-2.4-1.1-2.4-2.4 1.1-2.4 2.4-2.4 2.4 1.1 2.4 2.4z" opacity=".2"/><path d="m1183.9 513.4c0 1.3-1.1 2.4-2.4 2.4s-2.4-1.1-2.4-2.4 1.1-2.4 2.4-2.4 2.4 1.1 2.4 2.4z" opacity=".2"/><path d="m1199.6 513.4c0 1.3-1.1 2.4-2.4 2.4s-2.4-1.1-2.4-2.4 1.1-2.4 2.4-2.4 2.4 1.1 2.4 2.4z" opacity=".2"/><path d="m1215.4 513.4c0 1.3-1.1 2.4-2.4 2.4s-2.4-1.1-2.4-2.4 1.1-2.4 2.4-2.4 2.4 1.1 2.4 2.4z" opacity=".2"/><path d="m1231.2 513.4c0 1.3-1.1 2.4-2.4 2.4s-2.4-1.1-2.4-2.4 1.1-2.4 2.4-2.4 2.4 1.1 2.4 2.4z" opacity=".2"/><path d="m722.6 536.3c0 1.3-1.1 2.4-2.4 2.4s-2.4-1.1-2.4-2.4 1.1-2.4 2.4-2.4c1.4 0 2.4 1 2.4 2.4z" opacity=".1"/><path d="m738.4 536.3c0 1.3-1.1 2.4-2.4 2.4s-2.4-1.1-2.4-2.4 1.1-2.4 2.4-2.4 2.4 1 2.4 2.4z" opacity=".1"/><path d="m754.2 536.3c0 1.3-1.1 2.4-2.4 2.4s-2.4-1.1-2.4-2.4 1.1-2.4 2.4-2.4 2.4 1 2.4 2.4z" opacity=".1"/><path d="m769.9 536.3c0 1.3-1.1 2.4-2.4 2.4s-2.4-1.1-2.4-2.4 1.1-2.4 2.4-2.4c1.4 0 2.4 1 2.4 2.4z" opacity=".1"/><path d="m785.7 536.3c0 1.3-1.1 2.4-2.4 2.4s-2.4-1.1-2.4-2.4 1.1-2.4 2.4-2.4 2.4 1 2.4 2.4z" opacity=".1"/><path d="m801.5 536.3c0 1.3-1.1 2.4-2.4 2.4s-2.4-1.1-2.4-2.4 1.1-2.4 2.4-2.4 2.4 1 2.4 2.4z" opacity=".1"/><path d="m817.2 536.3c0 1.3-1.1 2.4-2.4 2.4s-2.4-1.1-2.4-2.4 1.1-2.4 2.4-2.4 2.4 1 2.4 2.4z" opacity=".1"/><path d="m833 536.3c0 1.3-1.1 2.4-2.4 2.4s-2.4-1.1-2.4-2.4 1.1-2.4 2.4-2.4c1.4 0 2.4 1 2.4 2.4z" opacity=".1"/><path d="m848.8 536.3c0 1.3-1.1 2.4-2.4 2.4s-2.4-1.1-2.4-2.4 1.1-2.4 2.4-2.4 2.4 1 2.4 2.4z" opacity=".1"/><path d="m730.6 548.7c0 1.3-1.1 2.4-2.4 2.4s-2.4-1.1-2.4-2.4 1.1-2.4 2.4-2.4c1.4.1 2.4 1.1 2.4 2.4z" opacity=".1"/><path d="m746.4 548.7c0 1.3-1.1 2.4-2.4 2.4s-2.4-1.1-2.4-2.4 1.1-2.4 2.4-2.4c1.3.1 2.4 1.1 2.4 2.4z" opacity=".1"/><path d="m762.2 548.7c0 1.3-1.1 2.4-2.4 2.4s-2.4-1.1-2.4-2.4 1.1-2.4 2.4-2.4c1.3.1 2.4 1.1 2.4 2.4z" opacity=".1"/><path d="m777.9 548.7c0 1.3-1.1 2.4-2.4 2.4s-2.4-1.1-2.4-2.4 1.1-2.4 2.4-2.4c1.4.1 2.4 1.1 2.4 2.4z" opacity=".1"/><path d="m793.7 548.7c0 1.3-1.1 2.4-2.4 2.4s-2.4-1.1-2.4-2.4 1.1-2.4 2.4-2.4c1.3.1 2.4 1.1 2.4 2.4z" opacity=".1"/><path d="m809.5 548.7c0 1.3-1.1 2.4-2.4 2.4s-2.4-1.1-2.4-2.4 1.1-2.4 2.4-2.4c1.3.1 2.4 1.1 2.4 2.4z" opacity=".1"/><path d="m825.2 548.7c0 1.3-1.1 2.4-2.4 2.4s-2.4-1.1-2.4-2.4 1.1-2.4 2.4-2.4c1.4.1 2.4 1.1 2.4 2.4z" opacity=".1"/><path d="m841 548.7c0 1.3-1.1 2.4-2.4 2.4s-2.4-1.1-2.4-2.4 1.1-2.4 2.4-2.4c1.3.1 2.4 1.1 2.4 2.4z" opacity=".1"/><path d="m856.8 548.7c0 1.3-1.1 2.4-2.4 2.4s-2.4-1.1-2.4-2.4 1.1-2.4 2.4-2.4c1.3.1 2.4 1.1 2.4 2.4z" opacity=".1"/><path d="m947.8 38.2c0 1.3-1.1 2.4-2.4 2.4s-2.4-1.1-2.4-2.4 1.1-2.4 2.4-2.4c1.4 0 2.4 1 2.4 2.4z" opacity=".15"/><path d="m963.6 38.2c0 1.3-1.1 2.4-2.4 2.4s-2.4-1.1-2.4-2.4 1.1-2.4 2.4-2.4 2.4 1 2.4 2.4z" opacity=".15"/><path d="m979.4 38.2c0 1.3-1.1 2.4-2.4 2.4s-2.4-1.1-2.4-2.4 1.1-2.4 2.4-2.4 2.4 1 2.4 2.4z" opacity=".15"/><path d="m947.8 50.2c0 1.3-1.2 2.3-2.5 2.3s-2.3-1.2-2.3-2.5 1.2-2.3 2.5-2.3 2.4 1.1 2.3 2.5z" opacity=".15"/><path d="m963.6 50.7c0 1.3-1.2 2.3-2.5 2.3s-2.3-1.2-2.3-2.5 1.2-2.3 2.5-2.3c1.3.1 2.3 1.2 2.3 2.5z" opacity=".15"/><path d="m979.4 51.3c0 1.3-1.2 2.3-2.5 2.3s-2.3-1.2-2.3-2.5 1.2-2.3 2.5-2.3c1.3.1 2.3 1.2 2.3 2.5z" opacity=".15"/><path d="m1127.8 271.1c0 1.3-1.1 2.4-2.4 2.4s-2.4-1.1-2.4-2.4 1.1-2.4 2.4-2.4c1.3.1 2.4 1.1 2.4 2.4z" opacity=".15"/><path d="m1143.6 271.1c0 1.3-1.1 2.4-2.4 2.4s-2.4-1.1-2.4-2.4 1.1-2.4 2.4-2.4c1.3.1 2.4 1.1 2.4 2.4z" opacity=".15"/><path d="m1159.3 271.1c0 1.3-1.1 2.4-2.4 2.4s-2.4-1.1-2.4-2.4 1.1-2.4 2.4-2.4 2.4 1.1 2.4 2.4z" opacity=".15"/><path d="m1127.8 283.1c0 1.3-1.2 2.3-2.5 2.3s-2.3-1.2-2.3-2.5 1.2-2.3 2.5-2.3c1.3.1 2.3 1.2 2.3 2.5z" opacity=".15"/><path d="m1143.6 283.7c0 1.3-1.2 2.3-2.5 2.3s-2.3-1.2-2.3-2.5 1.2-2.3 2.5-2.3c1.3.1 2.3 1.2 2.3 2.5z" opacity=".15"/><path d="m1159.3 284.3c0 1.3-1.2 2.3-2.5 2.3s-2.3-1.2-2.3-2.5 1.2-2.3 2.5-2.3c1.3.1 2.4 1.2 2.3 2.5z" opacity=".15"/><path d="m455.2 548.7c-1.3 0-2.4-1.1-2.4-2.4s1.1-2.4 2.4-2.4 2.4 1.1 2.4 2.4-1.1 2.4-2.4 2.4z" opacity=".07"/><path d="m455.2 564.4c-1.3 0-2.4-1.1-2.4-2.4s1.1-2.4 2.4-2.4 2.4 1.1 2.4 2.4c0 1.4-1.1 2.4-2.4 2.4z" opacity=".07"/><path d="m455.2 580.2c-1.3 0-2.4-1.1-2.4-2.4s1.1-2.4 2.4-2.4 2.4 1.1 2.4 2.4c0 1.4-1.1 2.4-2.4 2.4z" opacity=".07"/><path d="m443.2 548.7c-1.3 0-2.3-1.2-2.3-2.5s1.2-2.3 2.5-2.3 2.3 1.2 2.3 2.5c-.1 1.3-1.2 2.3-2.5 2.3z" opacity=".07"/><path d="m442.6 564.4c-1.3 0-2.3-1.2-2.3-2.5s1.2-2.3 2.5-2.3 2.3 1.2 2.3 2.5c-.1 1.4-1.2 2.4-2.5 2.3z" opacity=".07"/><path d="m442 580.2c-1.3 0-2.3-1.2-2.3-2.5s1.2-2.3 2.5-2.3 2.3 1.2 2.3 2.5-1.1 2.4-2.5 2.3z" opacity=".07"/><path d="m455.2 502.1c-1.3 0-2.4-1.1-2.4-2.4s1.1-2.4 2.4-2.4 2.4 1.1 2.4 2.4-1.1 2.4-2.4 2.4z" opacity=".07"/><path d="m455.2 517.9c-1.3 0-2.4-1.1-2.4-2.4s1.1-2.4 2.4-2.4 2.4 1.1 2.4 2.4-1.1 2.4-2.4 2.4z" opacity=".07"/><path d="m455.2 533.6c-1.3 0-2.4-1.1-2.4-2.4s1.1-2.4 2.4-2.4 2.4 1.1 2.4 2.4c0 1.4-1.1 2.4-2.4 2.4z" opacity=".07"/><path d="m443.2 502.1c-1.3 0-2.3-1.2-2.3-2.5s1.2-2.3 2.5-2.3 2.3 1.2 2.3 2.5c-.1 1.3-1.2 2.3-2.5 2.3z" opacity=".07"/><path d="m442.6 517.8c-1.3 0-2.3-1.2-2.3-2.5s1.2-2.3 2.5-2.3 2.3 1.2 2.3 2.5c-.1 1.4-1.2 2.4-2.5 2.3z" opacity=".07"/><path d="m442 533.6c-1.3 0-2.3-1.2-2.3-2.5s1.2-2.3 2.5-2.3 2.3 1.2 2.3 2.5-1.1 2.4-2.5 2.3z" opacity=".07"/></g></g></svg>