<svg enable-background="new 0 0 118 118" viewBox="0 0 118 118" xmlns="http://www.w3.org/2000/svg"><path d="m104 15.8c-2.5 1.1-3.5-.1-4.7-.7-7.6-3.5-14.8-7.6-22.8-10.3-5-1.7-9.8-1.4-14.6.3-8.8 3.1-16.5 8.1-24.7 12.4-2.1 1.1-5.3 3.5-6.5 1.2s2.7-3.5 4.8-4.6c8-4.3 15.8-9.1 24.3-12.4 6.5-2.4 12.8-2.3 19.2.3 8.7 3.6 16.4 8.7 25 13.8z" fill="#dc2626"/><path d="m1.3 27.3c4.6-.4 9.3-.9 14-1 13.3-.2 26.7-.3 40-.3 1.5.0 3.8-.4 3.8 1.9.0 1.8-2 1.9-3.5 1.9-18.2.0-36.3.3-54.3-2.5z" fill="#dc2626"/><text font-family="'HelveticaNeue'" font-size="28" transform="translate(22.9507 61.1348)">Acme</text><text font-family="'HelveticaNeue-Thin'" font-size="24" transform="translate(.000671 94.7348)">Corporation</text></svg>