<?xml version="1.0" encoding="iso-8859-1"?>
<!-- Generator: Adobe Illustrator 18.1.1, SVG Export Plug-In . SVG Version: 6.00 Build 0)  -->
<svg version="1.1" id="Capa_1" xmlns="http://www.w3.org/2000/svg" xmlns:xlink="http://www.w3.org/1999/xlink" x="0px" y="0px"
	 viewBox="0 0 38.762 38.762" style="enable-background:new 0 0 38.762 38.762;" xml:space="preserve">
<g>
	<path style="fill:#030104;" d="M32.724,0H6.038C5.174,0,4.472,0.703,4.472,1.565v35.633c-0.001,0.861,0.701,1.564,1.566,1.564
		h17.268c0.545,0,1.152-0.26,1.587-0.641c0.097-0.075,0.196-0.168,0.294-0.297l8.472-11.228c0.365-0.483,0.632-1.272,0.632-1.88
		V1.565C34.291,0.703,33.587,0,32.724,0z M30.563,28.1l-5.69,7.544v-9.359h7.062L30.563,28.1z M32.723,24.719h-7.851
		c-0.865,0-1.566,0.702-1.566,1.565v10.912H6.038V1.565h26.685C32.722,1.565,32.722,24.719,32.723,24.719z"/>
</g>
<g>
</g>
<g>
</g>
<g>
</g>
<g>
</g>
<g>
</g>
<g>
</g>
<g>
</g>
<g>
</g>
<g>
</g>
<g>
</g>
<g>
</g>
<g>
</g>
<g>
</g>
<g>
</g>
<g>
</g>
</svg>
